PathFileType  4	(X/Y/Z) C:\Users\15086\Documents\GitHub\mocap-processing\BertecTesting2023-09-14\
DataRate	CameraRate	NumFrames	NumMarkers	Units	OrigDataRate	OrigDataStartFrame	OrigNumFrames
  200.0		  200.0		   18		     10		 mm	  200.0	      238	   1900
Frame#	Time	r_calc			r_toe			r_meta			r_ankle			r_mankle			l_calc			l_toe			l_meta			l_ankle			l_mankle			
		X1	Y1	Z1	X2	Y2	Z2	X3	Y3	Z3	X4	Y4	Z4	X5	Y5	Z5	X6	Y6	Z6	X7	Y7	Z7	X8	Y8	Z8	X9	Y9	Z9	X10	Y10	Z10	

238	1.18500	1187.158	143.015	-281.002	1395.877	148.617	-223.909	1347.980	122.396	-187.138	1241.080	187.980	-211.077	1270.206	204.901	-292.085	341.073	482.967	-369.208	376.491	271.665	-375.105	346.612	314.027	-426.127	394.770	433.376	-422.222	411.961	411.068	-342.209
239	1.19000	1207.171	131.513	-283.669	1415.485	147.815	-228.065	1370.192	117.705	-192.340	1258.418	177.004	-213.367	1286.351	197.138	-294.092	342.628	510.845	-369.937	364.613	298.117	-376.237	338.955	341.059	-429.298	392.771	457.008	-422.461	408.953	434.647	-343.913
240	1.19500	1224.669	121.873	-286.840	1431.724	147.658	-232.382	1388.466	113.413	-196.696	1273.845	167.755	-215.578	1300.339	190.757	-294.685	347.147	538.544	-371.446	355.113	325.116	-377.794	331.895	370.336	-429.819	394.371	482.206	-423.323	408.087	458.276	-344.750
241	1.20000	1239.395	113.659	-288.307	1446.428	149.014	-237.054	1404.081	110.190	-200.875	1287.693	160.874	-217.809	1311.416	186.687	-297.400	353.968	566.430	-372.143	348.459	352.397	-380.020	328.053	399.333	-431.495	396.788	507.299	-425.620	409.344	481.793	-345.763
242	1.20500	1251.203	107.603	-290.217	1457.283	149.076	-241.655	1418.387	108.327	-206.768	1298.383	155.457	-219.778	1320.266	183.488	-298.856	363.129	592.744	-372.812	344.464	379.484	-381.723	327.022	428.053	-433.255	402.056	531.550	-426.853	413.245	504.799	-346.759
243	1.21000	1259.712	102.989	-292.581	1464.852	148.960	-246.074	1427.808	105.910	-211.657	1305.369	150.376	-222.298	1326.481	181.274	-300.291	374.568	617.966	-373.853	342.726	405.817	-385.122	328.392	456.072	-435.527	409.512	554.768	-427.718	418.836	527.021	-347.463
244	1.21500	1264.935	99.354	-296.478	1468.488	147.631	-249.347	1432.381	103.161	-215.917	1309.435	147.070	-222.783	1330.315	178.628	-300.208	387.643	642.147	-374.180	344.105	432.422	-385.260	332.682	483.235	-437.045	418.609	579.853	-430.525	426.284	548.454	-348.391
245	1.22000	1266.792	96.378	-298.586	1469.459	145.571	-251.827	1434.177	99.678	-219.423	1310.348	142.917	-224.462	1331.215	176.084	-301.484	402.215	664.651	-374.449	347.436	457.653	-388.043	339.387	510.492	-438.177	430.132	597.750	-429.182	435.694	568.702	-348.934
246	1.22500	1265.295	93.583	-301.946	1468.312	143.059	-253.850	1433.243	95.376	-222.494	1308.333	138.843	-226.128	1330.153	174.229	-303.014	418.344	685.808	-374.447	353.101	481.789	-389.223	347.693	535.593	-439.793	444.051	616.613	-428.199	446.663	587.704	-350.045
247	1.23000	1260.516	90.791	-302.661	1464.057	138.684	-254.955	1429.773	90.459	-224.647	1303.080	134.552	-227.895	1324.918	169.937	-304.019	435.953	705.268	-373.903	362.182	506.564	-395.078	358.298	559.505	-441.029	457.407	636.954	-429.947	459.299	605.472	-350.790
248	1.23500	1252.786	87.327	-305.265	1456.326	132.026	-255.414	1421.520	84.257	-226.115	1295.103	130.185	-229.451	1318.272	166.059	-305.731	455.057	723.081	-373.275	370.957	526.105	-394.710	370.852	581.253	-442.726	470.076	655.419	-432.839	473.350	621.617	-350.923
249	1.24000	1242.328	83.117	-307.295	1446.766	124.503	-255.955	1410.375	77.263	-226.779	1284.762	125.543	-231.256	1308.554	160.214	-308.005	475.247	738.893	-372.656	382.673	545.649	-396.566	384.703	602.355	-443.479	489.801	669.622	-430.679	488.942	636.378	-351.421
250	1.24500	1229.436	78.625	-309.712	1434.370	115.004	-256.449	1396.434	69.531	-227.503	1272.104	120.618	-233.359	1297.592	154.704	-309.300	496.524	753.037	-372.420	395.530	563.306	-398.082	400.128	620.568	-444.557	507.653	683.502	-431.287	505.842	649.254	-351.670
251	1.25000	1213.955	73.995	-311.110	1419.536	104.739	-257.090	1379.990	60.748	-227.952	1257.280	115.372	-235.123	1283.972	148.040	-311.281	518.264	764.584	-371.691	410.388	579.879	-398.727	417.502	638.636	-444.858	526.678	694.636	-431.778	523.714	660.731	-352.929
252	1.25500	1196.189	69.239	-312.782	1402.662	93.580	-257.916	1361.448	51.440	-228.734	1240.604	109.853	-236.616	1268.315	141.119	-314.477	540.799	774.867	-371.941	426.430	594.171	-399.880	435.635	651.463	-446.012	546.802	704.456	-432.270	542.489	670.458	-353.102
253	1.26000	1176.487	64.484	-314.034	1384.171	81.773	-259.570	1341.307	41.428	-230.074	1222.748	104.074	-238.594	1251.436	134.245	-315.008	563.641	783.214	-372.533	443.258	606.206	-400.689	454.919	663.774	-447.001	567.391	712.509	-432.919	561.886	678.685	-353.925
254	1.26500	1153.593	62.121	-316.407	1364.055	71.690	-262.732	1317.583	39.632	-227.591	1203.045	98.357	-240.178	1232.425	126.953	-317.590	586.409	790.053	-373.345	461.259	616.123	-400.398	474.443	673.377	-447.688	588.110	718.691	-433.969	581.746	685.106	-354.181
255	1.27000	1128.072	59.988	-316.414	1342.013	64.751	-269.690	1293.673	41.887	-231.581	1182.948	94.157	-244.771	1208.930	121.758	-324.334	608.958	794.962	-374.680	479.880	623.522	-402.407	494.316	680.361	-448.230	596.759	731.567	-439.548	602.000	690.028	-355.051
